<?xml version="1.0" encoding="UTF-8" standalone="no"?>
<svg
   xmlns:dc="http://purl.org/dc/elements/1.1/"
   xmlns:cc="http://creativecommons.org/ns#"
   xmlns:rdf="http://www.w3.org/1999/02/22-rdf-syntax-ns#"
   xmlns:svg="http://www.w3.org/2000/svg"
   xmlns="http://www.w3.org/2000/svg"
   width="58.502132mm"
   height="65.908592mm"
   viewBox="0 0 58.502132 65.908592"
   version="1.1"
   id="svg1106">
  <defs
     id="defs1100">
    <clipPath
       clipPathUnits="userSpaceOnUse"
       id="clipPath25368">
      <path
         style="color:#000000;font-style:normal;font-variant:normal;font-weight:normal;font-stretch:normal;font-size:medium;line-height:normal;font-family:sans-serif;font-variant-ligatures:normal;font-variant-position:normal;font-variant-caps:normal;font-variant-numeric:normal;font-variant-alternates:normal;font-feature-settings:normal;text-indent:0;text-align:start;text-decoration:none;text-decoration-line:none;text-decoration-style:solid;text-decoration-color:#000000;letter-spacing:normal;word-spacing:normal;text-transform:none;writing-mode:lr-tb;direction:ltr;text-orientation:mixed;dominant-baseline:auto;baseline-shift:baseline;text-anchor:start;white-space:normal;shape-padding:0;clip-rule:nonzero;display:inline;overflow:visible;visibility:visible;opacity:1;isolation:auto;mix-blend-mode:normal;color-interpolation:sRGB;color-interpolation-filters:linearRGB;solid-color:#000000;solid-opacity:1;vector-effect:none;fill:#e62020;fill-opacity:1;fill-rule:nonzero;stroke:none;stroke-width:11.29974365;stroke-linecap:butt;stroke-linejoin:round;stroke-miterlimit:4;stroke-dasharray:none;stroke-dashoffset:0;stroke-opacity:1;paint-order:normal;color-rendering:auto;image-rendering:auto;shape-rendering:auto;text-rendering:auto;enable-background:accumulate"
         d="m 1286.0994,-1635.7062 c -1.0363,-0.024 -2.0595,0.2364 -2.9574,0.7544 l -25.4987,14.7224 c -1.7487,1.0092 -2.8262,2.8747 -2.8263,4.8938 v 29.4426 c 10e-5,2.0191 1.0776,3.8846 2.8263,4.8938 l 25.4987,14.7202 c 1.7476,1.0084 3.9004,1.0084 5.6481,0 l 25.4986,-14.7202 c 1.7488,-1.0092 2.8262,-2.8747 2.8263,-4.8938 v -29.4426 c -10e-5,-2.0191 -1.0775,-3.8846 -2.8263,-4.8938 l -25.4986,-14.7224 c -0.8197,-0.4729 -1.7447,-0.7322 -2.6907,-0.7544 z"
         id="path25370" />
    </clipPath>
    <clipPath
       clipPathUnits="userSpaceOnUse"
       id="clipPath2374">
      <path
         style="color:#000000;font-style:normal;font-variant:normal;font-weight:normal;font-stretch:normal;font-size:medium;line-height:normal;font-family:sans-serif;font-variant-ligatures:normal;font-variant-position:normal;font-variant-caps:normal;font-variant-numeric:normal;font-variant-alternates:normal;font-feature-settings:normal;text-indent:0;text-align:start;text-decoration:none;text-decoration-line:none;text-decoration-style:solid;text-decoration-color:#000000;letter-spacing:normal;word-spacing:normal;text-transform:none;writing-mode:lr-tb;direction:ltr;text-orientation:mixed;dominant-baseline:auto;baseline-shift:baseline;text-anchor:start;white-space:normal;shape-padding:0;clip-rule:nonzero;display:inline;overflow:visible;visibility:visible;opacity:1;isolation:auto;mix-blend-mode:normal;color-interpolation:sRGB;color-interpolation-filters:linearRGB;solid-color:#000000;solid-opacity:1;vector-effect:none;fill:#e62020;fill-opacity:1;fill-rule:nonzero;stroke:none;stroke-width:11.29974365;stroke-linecap:butt;stroke-linejoin:round;stroke-miterlimit:4;stroke-dasharray:none;stroke-dashoffset:0;stroke-opacity:1;paint-order:normal;color-rendering:auto;image-rendering:auto;shape-rendering:auto;text-rendering:auto;enable-background:accumulate"
         d="m 1342.4575,-1232.0926 c -1.0363,-0.024 -2.0595,0.2364 -2.9574,0.7544 l -25.4987,14.7224 c -1.7488,1.0092 -2.8262,2.8747 -2.8263,4.8938 v 29.4426 c 10e-5,2.0191 1.0775,3.8846 2.8263,4.8938 l 25.4987,14.7202 c 1.7476,1.0084 3.9004,1.0084 5.6481,0 l 25.4986,-14.7202 c 1.7488,-1.0092 2.8262,-2.8747 2.8263,-4.8938 v -29.4426 c -10e-5,-2.0191 -1.0775,-3.8846 -2.8263,-4.8938 l -25.4986,-14.7224 c -0.8197,-0.4729 -1.7447,-0.7322 -2.6907,-0.7544 z"
         id="path2377" />
    </clipPath>
    <clipPath
       clipPathUnits="userSpaceOnUse"
       id="clipPath2485">
      <path
         style="color:#000000;font-style:normal;font-variant:normal;font-weight:normal;font-stretch:normal;font-size:medium;line-height:normal;font-family:sans-serif;font-variant-ligatures:normal;font-variant-position:normal;font-variant-caps:normal;font-variant-numeric:normal;font-variant-alternates:normal;font-feature-settings:normal;text-indent:0;text-align:start;text-decoration:none;text-decoration-line:none;text-decoration-style:solid;text-decoration-color:#000000;letter-spacing:normal;word-spacing:normal;text-transform:none;writing-mode:lr-tb;direction:ltr;text-orientation:mixed;dominant-baseline:auto;baseline-shift:baseline;text-anchor:start;white-space:normal;shape-padding:0;clip-rule:nonzero;display:inline;overflow:visible;visibility:visible;opacity:1;isolation:auto;mix-blend-mode:normal;color-interpolation:sRGB;color-interpolation-filters:linearRGB;solid-color:#000000;solid-opacity:1;vector-effect:none;fill:#e62020;fill-opacity:1;fill-rule:nonzero;stroke:none;stroke-width:11.29974365;stroke-linecap:butt;stroke-linejoin:round;stroke-miterlimit:4;stroke-dasharray:none;stroke-dashoffset:0;stroke-opacity:1;paint-order:normal;color-rendering:auto;image-rendering:auto;shape-rendering:auto;text-rendering:auto;enable-background:accumulate"
         d="m 1495.292,-1232.0926 c -1.0363,-0.024 -2.0595,0.2364 -2.9574,0.7544 l -25.4987,14.7224 c -1.7488,1.0092 -2.8262,2.8747 -2.8263,4.8938 v 29.4426 c 10e-5,2.0191 1.0775,3.8846 2.8263,4.8938 l 25.4987,14.7202 c 1.7476,1.0084 3.9004,1.0084 5.6481,0 l 25.4986,-14.7202 c 1.7488,-1.0092 2.8262,-2.8747 2.8263,-4.8938 v -29.4426 c -1e-4,-2.0191 -1.0775,-3.8846 -2.8263,-4.8938 l -25.4986,-14.7224 c -0.8197,-0.4729 -1.7447,-0.7322 -2.6907,-0.7544 z"
         id="path2487" />
    </clipPath>
    <clipPath
       clipPathUnits="userSpaceOnUse"
       id="clipPath2481">
      <path
         style="color:#000000;font-style:normal;font-variant:normal;font-weight:normal;font-stretch:normal;font-size:medium;line-height:normal;font-family:sans-serif;font-variant-ligatures:normal;font-variant-position:normal;font-variant-caps:normal;font-variant-numeric:normal;font-variant-alternates:normal;font-feature-settings:normal;text-indent:0;text-align:start;text-decoration:none;text-decoration-line:none;text-decoration-style:solid;text-decoration-color:#000000;letter-spacing:normal;word-spacing:normal;text-transform:none;writing-mode:lr-tb;direction:ltr;text-orientation:mixed;dominant-baseline:auto;baseline-shift:baseline;text-anchor:start;white-space:normal;shape-padding:0;clip-rule:nonzero;display:inline;overflow:visible;visibility:visible;opacity:1;isolation:auto;mix-blend-mode:normal;color-interpolation:sRGB;color-interpolation-filters:linearRGB;solid-color:#000000;solid-opacity:1;vector-effect:none;fill:#e62020;fill-opacity:1;fill-rule:nonzero;stroke:none;stroke-width:11.29974365;stroke-linecap:butt;stroke-linejoin:round;stroke-miterlimit:4;stroke-dasharray:none;stroke-dashoffset:0;stroke-opacity:1;paint-order:normal;color-rendering:auto;image-rendering:auto;shape-rendering:auto;text-rendering:auto;enable-background:accumulate"
         d="m 1495.292,-1232.0926 c -1.0363,-0.024 -2.0595,0.2364 -2.9574,0.7544 l -25.4987,14.7224 c -1.7488,1.0092 -2.8262,2.8747 -2.8263,4.8938 v 29.4426 c 10e-5,2.0191 1.0775,3.8846 2.8263,4.8938 l 25.4987,14.7202 c 1.7476,1.0084 3.9004,1.0084 5.6481,0 l 25.4986,-14.7202 c 1.7488,-1.0092 2.8262,-2.8747 2.8263,-4.8938 v -29.4426 c -1e-4,-2.0191 -1.0775,-3.8846 -2.8263,-4.8938 l -25.4986,-14.7224 c -0.8197,-0.4729 -1.7447,-0.7322 -2.6907,-0.7544 z"
         id="path2483" />
    </clipPath>
    <clipPath
       clipPathUnits="userSpaceOnUse"
       id="clipPath2477">
      <path
         style="color:#000000;font-style:normal;font-variant:normal;font-weight:normal;font-stretch:normal;font-size:medium;line-height:normal;font-family:sans-serif;font-variant-ligatures:normal;font-variant-position:normal;font-variant-caps:normal;font-variant-numeric:normal;font-variant-alternates:normal;font-feature-settings:normal;text-indent:0;text-align:start;text-decoration:none;text-decoration-line:none;text-decoration-style:solid;text-decoration-color:#000000;letter-spacing:normal;word-spacing:normal;text-transform:none;writing-mode:lr-tb;direction:ltr;text-orientation:mixed;dominant-baseline:auto;baseline-shift:baseline;text-anchor:start;white-space:normal;shape-padding:0;clip-rule:nonzero;display:inline;overflow:visible;visibility:visible;opacity:1;isolation:auto;mix-blend-mode:normal;color-interpolation:sRGB;color-interpolation-filters:linearRGB;solid-color:#000000;solid-opacity:1;vector-effect:none;fill:#e62020;fill-opacity:1;fill-rule:nonzero;stroke:none;stroke-width:11.29974365;stroke-linecap:butt;stroke-linejoin:round;stroke-miterlimit:4;stroke-dasharray:none;stroke-dashoffset:0;stroke-opacity:1;paint-order:normal;color-rendering:auto;image-rendering:auto;shape-rendering:auto;text-rendering:auto;enable-background:accumulate"
         d="m 1495.292,-1232.0926 c -1.0363,-0.024 -2.0595,0.2364 -2.9574,0.7544 l -25.4987,14.7224 c -1.7488,1.0092 -2.8262,2.8747 -2.8263,4.8938 v 29.4426 c 10e-5,2.0191 1.0775,3.8846 2.8263,4.8938 l 25.4987,14.7202 c 1.7476,1.0084 3.9004,1.0084 5.6481,0 l 25.4986,-14.7202 c 1.7488,-1.0092 2.8262,-2.8747 2.8263,-4.8938 v -29.4426 c -1e-4,-2.0191 -1.0775,-3.8846 -2.8263,-4.8938 l -25.4986,-14.7224 c -0.8197,-0.4729 -1.7447,-0.7322 -2.6907,-0.7544 z"
         id="path2479" />
    </clipPath>
    <clipPath
       id="clipPath2374-4"
       clipPathUnits="userSpaceOnUse">
      <path
         id="path2377-9"
         d="m 1342.4575,-1232.0926 c -1.0363,-0.024 -2.0595,0.2364 -2.9574,0.7544 l -25.4987,14.7224 c -1.7488,1.0092 -2.8262,2.8747 -2.8263,4.8938 v 29.4426 c 10e-5,2.0191 1.0775,3.8846 2.8263,4.8938 l 25.4987,14.7202 c 1.7476,1.0084 3.9004,1.0084 5.6481,0 l 25.4986,-14.7202 c 1.7488,-1.0092 2.8262,-2.8747 2.8263,-4.8938 v -29.4426 c -10e-5,-2.0191 -1.0775,-3.8846 -2.8263,-4.8938 l -25.4986,-14.7224 c -0.8197,-0.4729 -1.7447,-0.7322 -2.6907,-0.7544 z"
         style="color:#000000;font-style:normal;font-variant:normal;font-weight:normal;font-stretch:normal;font-size:medium;line-height:normal;font-family:sans-serif;font-variant-ligatures:normal;font-variant-position:normal;font-variant-caps:normal;font-variant-numeric:normal;font-variant-alternates:normal;font-feature-settings:normal;text-indent:0;text-align:start;text-decoration:none;text-decoration-line:none;text-decoration-style:solid;text-decoration-color:#000000;letter-spacing:normal;word-spacing:normal;text-transform:none;writing-mode:lr-tb;direction:ltr;text-orientation:mixed;dominant-baseline:auto;baseline-shift:baseline;text-anchor:start;white-space:normal;shape-padding:0;clip-rule:nonzero;display:inline;overflow:visible;visibility:visible;opacity:1;isolation:auto;mix-blend-mode:normal;color-interpolation:sRGB;color-interpolation-filters:linearRGB;solid-color:#000000;solid-opacity:1;vector-effect:none;fill:#e62020;fill-opacity:1;fill-rule:nonzero;stroke:none;stroke-width:11.29974365;stroke-linecap:butt;stroke-linejoin:round;stroke-miterlimit:4;stroke-dasharray:none;stroke-dashoffset:0;stroke-opacity:1;paint-order:normal;color-rendering:auto;image-rendering:auto;shape-rendering:auto;text-rendering:auto;enable-background:accumulate" />
    </clipPath>
    <clipPath
       id="clipPath3446"
       clipPathUnits="userSpaceOnUse">
      <path
         style="color:#000000;font-style:normal;font-variant:normal;font-weight:normal;font-stretch:normal;font-size:medium;line-height:normal;font-family:sans-serif;font-variant-ligatures:normal;font-variant-position:normal;font-variant-caps:normal;font-variant-numeric:normal;font-variant-alternates:normal;font-feature-settings:normal;text-indent:0;text-align:start;text-decoration:none;text-decoration-line:none;text-decoration-style:solid;text-decoration-color:#000000;letter-spacing:normal;word-spacing:normal;text-transform:none;writing-mode:lr-tb;direction:ltr;text-orientation:mixed;dominant-baseline:auto;baseline-shift:baseline;text-anchor:start;white-space:normal;shape-padding:0;clip-rule:nonzero;display:inline;overflow:visible;visibility:visible;opacity:1;isolation:auto;mix-blend-mode:normal;color-interpolation:sRGB;color-interpolation-filters:linearRGB;solid-color:#000000;solid-opacity:1;vector-effect:none;fill:#e62020;fill-opacity:1;fill-rule:nonzero;stroke:none;stroke-width:11.29974365;stroke-linecap:butt;stroke-linejoin:round;stroke-miterlimit:4;stroke-dasharray:none;stroke-dashoffset:0;stroke-opacity:1;paint-order:normal;color-rendering:auto;image-rendering:auto;shape-rendering:auto;text-rendering:auto;enable-background:accumulate"
         d="m 1079.2458,-970.88466 c -1.0363,-0.0241 -2.0595,0.2364 -2.9574,0.75441 l -25.4987,14.72239 c -1.7488,1.0092 -2.8262,2.8747 -2.8263,4.89381 v 29.4426 c 10e-5,2.01909 1.0775,3.88461 2.8263,4.89381 l 25.4987,14.7202 c 1.7476,1.00838 3.9004,1.00838 5.6481,0 l 25.4986,-14.7202 c 1.7488,-1.0092 2.8262,-2.87472 2.8263,-4.89381 v -29.4426 c -1e-4,-2.01911 -1.0775,-3.88461 -2.8263,-4.89381 l -25.4986,-14.72239 c -0.8197,-0.47289 -1.7447,-0.73221 -2.6907,-0.75441 z"
         id="path3448" />
    </clipPath>
    <clipPath
       id="clipPath2481-0"
       clipPathUnits="userSpaceOnUse">
      <path
         id="path2483-1"
         d="m 1495.292,-1232.0926 c -1.0363,-0.024 -2.0595,0.2364 -2.9574,0.7544 l -25.4987,14.7224 c -1.7488,1.0092 -2.8262,2.8747 -2.8263,4.8938 v 29.4426 c 10e-5,2.0191 1.0775,3.8846 2.8263,4.8938 l 25.4987,14.7202 c 1.7476,1.0084 3.9004,1.0084 5.6481,0 l 25.4986,-14.7202 c 1.7488,-1.0092 2.8262,-2.8747 2.8263,-4.8938 v -29.4426 c -1e-4,-2.0191 -1.0775,-3.8846 -2.8263,-4.8938 l -25.4986,-14.7224 c -0.8197,-0.4729 -1.7447,-0.7322 -2.6907,-0.7544 z"
         style="color:#000000;font-style:normal;font-variant:normal;font-weight:normal;font-stretch:normal;font-size:medium;line-height:normal;font-family:sans-serif;font-variant-ligatures:normal;font-variant-position:normal;font-variant-caps:normal;font-variant-numeric:normal;font-variant-alternates:normal;font-feature-settings:normal;text-indent:0;text-align:start;text-decoration:none;text-decoration-line:none;text-decoration-style:solid;text-decoration-color:#000000;letter-spacing:normal;word-spacing:normal;text-transform:none;writing-mode:lr-tb;direction:ltr;text-orientation:mixed;dominant-baseline:auto;baseline-shift:baseline;text-anchor:start;white-space:normal;shape-padding:0;clip-rule:nonzero;display:inline;overflow:visible;visibility:visible;opacity:1;isolation:auto;mix-blend-mode:normal;color-interpolation:sRGB;color-interpolation-filters:linearRGB;solid-color:#000000;solid-opacity:1;vector-effect:none;fill:#e62020;fill-opacity:1;fill-rule:nonzero;stroke:none;stroke-width:11.29974365;stroke-linecap:butt;stroke-linejoin:round;stroke-miterlimit:4;stroke-dasharray:none;stroke-dashoffset:0;stroke-opacity:1;paint-order:normal;color-rendering:auto;image-rendering:auto;shape-rendering:auto;text-rendering:auto;enable-background:accumulate" />
    </clipPath>
    <clipPath
       id="clipPath2477-9"
       clipPathUnits="userSpaceOnUse">
      <path
         id="path2479-6"
         d="m 1495.292,-1232.0926 c -1.0363,-0.024 -2.0595,0.2364 -2.9574,0.7544 l -25.4987,14.7224 c -1.7488,1.0092 -2.8262,2.8747 -2.8263,4.8938 v 29.4426 c 10e-5,2.0191 1.0775,3.8846 2.8263,4.8938 l 25.4987,14.7202 c 1.7476,1.0084 3.9004,1.0084 5.6481,0 l 25.4986,-14.7202 c 1.7488,-1.0092 2.8262,-2.8747 2.8263,-4.8938 v -29.4426 c -1e-4,-2.0191 -1.0775,-3.8846 -2.8263,-4.8938 l -25.4986,-14.7224 c -0.8197,-0.4729 -1.7447,-0.7322 -2.6907,-0.7544 z"
         style="color:#000000;font-style:normal;font-variant:normal;font-weight:normal;font-stretch:normal;font-size:medium;line-height:normal;font-family:sans-serif;font-variant-ligatures:normal;font-variant-position:normal;font-variant-caps:normal;font-variant-numeric:normal;font-variant-alternates:normal;font-feature-settings:normal;text-indent:0;text-align:start;text-decoration:none;text-decoration-line:none;text-decoration-style:solid;text-decoration-color:#000000;letter-spacing:normal;word-spacing:normal;text-transform:none;writing-mode:lr-tb;direction:ltr;text-orientation:mixed;dominant-baseline:auto;baseline-shift:baseline;text-anchor:start;white-space:normal;shape-padding:0;clip-rule:nonzero;display:inline;overflow:visible;visibility:visible;opacity:1;isolation:auto;mix-blend-mode:normal;color-interpolation:sRGB;color-interpolation-filters:linearRGB;solid-color:#000000;solid-opacity:1;vector-effect:none;fill:#e62020;fill-opacity:1;fill-rule:nonzero;stroke:none;stroke-width:11.29974365;stroke-linecap:butt;stroke-linejoin:round;stroke-miterlimit:4;stroke-dasharray:none;stroke-dashoffset:0;stroke-opacity:1;paint-order:normal;color-rendering:auto;image-rendering:auto;shape-rendering:auto;text-rendering:auto;enable-background:accumulate" />
    </clipPath>
  </defs>
  <metadata
     id="metadata1103">
    <rdf:RDF>
      <cc:Work
         rdf:about="">
        <dc:format>image/svg+xml</dc:format>
        <dc:type
           rdf:resource="http://purl.org/dc/dcmitype/StillImage" />
        <dc:title />
      </cc:Work>
    </rdf:RDF>
  </metadata>
  <g
     id="layer1"
     transform="translate(-10.748953,-224.0457)">
    <g
       id="g1572"
       transform="matrix(0.93906921,0,0,0.93906921,-1223.4976,951.95286)">
      <path
         id="path1549"
         d="m 1345.6121,-775.13534 c -1.0363,-0.024 -2.0595,0.2364 -2.9574,0.7544 l -25.4987,14.7224 c -1.7488,1.0092 -2.8262,2.8747 -2.8263,4.8938 v 29.4426 c 10e-5,2.0191 1.0775,3.8846 2.8263,4.8938 l 25.4987,14.7202 c 1.7476,1.0084 3.9004,1.0084 5.6481,0 l 25.4986,-14.7202 c 1.7488,-1.0092 2.8262,-2.8747 2.8263,-4.8938 v -29.4426 c -10e-5,-2.0191 -1.0775,-3.8846 -2.8263,-4.8938 l -25.4986,-14.7224 c -0.8197,-0.4729 -1.7447,-0.7322 -2.6907,-0.7544 z"
         style="color:#000000;font-style:normal;font-variant:normal;font-weight:normal;font-stretch:normal;font-size:medium;line-height:normal;font-family:sans-serif;font-variant-ligatures:normal;font-variant-position:normal;font-variant-caps:normal;font-variant-numeric:normal;font-variant-alternates:normal;font-feature-settings:normal;text-indent:0;text-align:start;text-decoration:none;text-decoration-line:none;text-decoration-style:solid;text-decoration-color:#000000;letter-spacing:normal;word-spacing:normal;text-transform:none;writing-mode:lr-tb;direction:ltr;text-orientation:mixed;dominant-baseline:auto;baseline-shift:baseline;text-anchor:start;white-space:normal;shape-padding:0;clip-rule:nonzero;display:inline;overflow:visible;visibility:visible;opacity:1;isolation:auto;mix-blend-mode:normal;color-interpolation:sRGB;color-interpolation-filters:linearRGB;solid-color:#000000;solid-opacity:1;vector-effect:none;fill:#e62020;fill-opacity:1;fill-rule:nonzero;stroke:none;stroke-width:11.29974365;stroke-linecap:butt;stroke-linejoin:round;stroke-miterlimit:4;stroke-dasharray:none;stroke-dashoffset:0;stroke-opacity:1;paint-order:normal;color-rendering:auto;image-rendering:auto;shape-rendering:auto;text-rendering:auto;enable-background:accumulate" />
      <path
         style="font-style:normal;font-variant:normal;font-weight:900;font-stretch:normal;font-size:47.94249725px;line-height:1.25;font-family:'Noto Sans JP Black';-inkscape-font-specification:'Noto Sans JP Black, Heavy';font-variant-ligatures:normal;font-variant-caps:normal;font-variant-numeric:normal;font-feature-settings:normal;text-align:start;letter-spacing:0px;word-spacing:0px;writing-mode:lr-tb;text-anchor:start;fill:#ffffff;fill-opacity:1;stroke:none;stroke-width:0.7937203"
         d="m 1333.4019,-754.93354 -5.8356,23.6206 h 8.9213 c 5.1432,0 9.7721,-2.1589 10.9644,-6.9846 0.2485,-1.0059 0.2759,-1.8712 0.127,-2.6047 h 2.5552 l -4.6751,18.922 h 5.6829 l 4.675,-18.922 h 6.4132 l 1.1609,-4.6986 h -16.3437 c 0.9492,-1.0021 1.6605,-2.2775 1.9603,-3.491 1.1216,-4.54 -2.4619,-5.8417 -7.3511,-5.8417 z m 4.6164,4.3179 h 2.3493 c 2.3811,0 3.3197,0.6984 2.904,2.3811 -0.4,1.6191 -1.7382,2.667 -4.151,2.667 h -2.3497 z m -2.2827,9.2386 h 2.8255 c 2.7621,0 3.9391,0.7622 3.4606,2.6988 -0.502,2.0319 -2.1419,3.0159 -4.8723,3.0159 h -2.8255 z"
         id="path1560" />
    </g>
  </g>
</svg>
